<svg xmlns="http://www.w3.org/2000/svg" id="Camada_1" data-name="Camada 1" viewBox="0 0 285.41 100"><defs><style>.cls-1{mask:url(#mask-1)}.cls-2{fill:url(#Gradiente_sem_nome_2)}.cls-3{fill:#fff}.cls-4{mask:url(#mask)}.cls-5{opacity:.86}.cls-6{fill:url(#Gradiente_sem_nome)}</style><mask id="mask" x="0" y="4.88" width="63.73" height="95.12" maskUnits="userSpaceOnUse"><g id="mask0_622_1074" data-name="mask0 622 1074"><path class="cls-3" d="M0,4.88h63.73v95.12H0V4.88Z"/></g></mask><linearGradient id="Gradiente_sem_nome" data-name="Gradiente sem nome" x1="31.87" y1="93.67" x2="31.87" y2="-1.45" gradientTransform="translate(0 98.55) scale(1 -1)" gradientUnits="userSpaceOnUse"><stop offset="0" stop-color="#4015f3"/><stop offset=".47" stop-color="#6b47ff"/></linearGradient><mask id="mask-1" x="24.03" y="0" width="63.73" height="95.12" maskUnits="userSpaceOnUse"><g id="mask1_622_1074" data-name="mask1 622 1074"><path class="cls-3" d="M24.03,0h63.73v95.12H24.03V0Z"/></g></mask><linearGradient id="Gradiente_sem_nome_2" data-name="Gradiente sem nome 2" x1="55.89" y1="98.55" x2="55.89" y2="3.43" gradientTransform="translate(0 98.55) scale(1 -1)" gradientUnits="userSpaceOnUse"><stop offset="0" stop-color="#e54254"/><stop offset="1" stop-color="#feac0f"/></linearGradient></defs><g class="cls-4"><g class="cls-5"><path class="cls-6" d="M63.73,36.74c0-17.6-14.27-31.87-31.87-31.87S0,19.15,0,36.74l.48,63.26c48.88,0,60.03-40.21,62.54-56.51.47-2.17.72-4.43.72-6.75Z"/></g></g><g class="cls-1"><g class="cls-5"><path class="cls-2" d="M87.76,31.87c0-17.6-14.27-31.87-31.87-31.87s-31.87,14.27-31.87,31.87l.48,63.26c48.88,0,60.03-40.21,62.54-56.51.47-2.17.72-4.43.72-6.75Z"/></g></g><path class="cls-3" d="M130.48,29.65c4.29,0,8.06.84,11.3,2.52,3.28,1.68,5.8,4.08,7.55,7.2,1.8,3.08,2.69,6.67,2.69,10.77s-.9,7.69-2.69,10.77c-1.76,3.04-4.27,5.41-7.55,7.08-3.24,1.68-7.01,2.52-11.3,2.52h-14.28V29.65h14.28ZM130.18,63.55c4.29,0,7.61-1.17,9.95-3.51,2.34-2.34,3.51-5.64,3.51-9.89s-1.17-7.57-3.51-9.95c-2.34-2.42-5.66-3.63-9.95-3.63h-5.8v26.99h5.8ZM188.78,38.08v32.43h-8.25v-4.1c-1.05,1.4-2.44,2.52-4.16,3.34-1.68.78-3.51,1.17-5.5,1.17-2.54,0-4.78-.53-6.73-1.58-1.95-1.09-3.49-2.67-4.62-4.74-1.09-2.11-1.64-4.61-1.64-7.49v-19.03h8.2v17.86c0,2.58.64,4.57,1.93,5.97,1.29,1.37,3.04,2.05,5.27,2.05s4.04-.68,5.33-2.05c1.29-1.41,1.93-3.4,1.93-5.97v-17.86h8.25ZM211.26,71.04c-3.12,0-5.93-.68-8.43-2.05-2.5-1.4-4.47-3.38-5.91-5.91-1.4-2.54-2.11-5.46-2.11-8.78s.72-6.24,2.17-8.78c1.48-2.54,3.49-4.49,6.03-5.85,2.54-1.41,5.37-2.11,8.49-2.11s5.95.7,8.49,2.11c2.54,1.37,4.53,3.32,5.97,5.85,1.48,2.54,2.22,5.46,2.22,8.78s-.76,6.24-2.28,8.78c-1.48,2.54-3.51,4.51-6.09,5.91-2.54,1.37-5.39,2.05-8.55,2.05ZM211.26,63.9c1.48,0,2.87-.35,4.16-1.05,1.33-.74,2.38-1.83,3.16-3.28.78-1.44,1.17-3.2,1.17-5.27,0-3.08-.82-5.44-2.46-7.08-1.6-1.68-3.57-2.52-5.91-2.52s-4.31.84-5.91,2.52c-1.56,1.64-2.34,4-2.34,7.08s.76,5.46,2.28,7.14c1.56,1.64,3.51,2.46,5.85,2.46ZM249.07,44.81h-5.68v25.7h-8.31v-25.7h-3.69v-6.73h3.69v-1.64c0-3.98,1.13-6.91,3.4-8.78s5.68-2.75,10.25-2.63v6.91c-1.99-.04-3.38.29-4.16,1s-1.17,1.97-1.17,3.81v1.35h5.68v6.73ZM285.41,38.08l-20.08,47.77h-8.72l7.03-16.16-13-31.61h9.19l8.37,22.66,8.49-22.66h8.72Z"/></svg>
